<svg width="1475" height="2069" viewBox="0 0 1475 2069" fill="none" xmlns="http://www.w3.org/2000/svg">
<path d="M315.267 140.098L265.793 195.842L272.307 263.014L226.251 323.711L302.462 340.992L366.074 284.651L366.074 195.842L315.267 140.098Z" fill="#04395A" fill-opacity="0.5" stroke="#04395A" stroke-width="4"/>
<path d="M106.999 48.0356L26.9988 27.0356L48.9988 88.0357L106.999 48.0356Z" fill="#04395A" fill-opacity="0.5" stroke="#04395A" stroke-width="4"/>
<path d="M283.364 866.571L261.919 830.033L247.972 859.926L283.364 866.571Z" fill="#04395A" fill-opacity="0.5" stroke="#04395A" stroke-width="4"/>
<path d="M175.53 862.523L222.28 871.3L217.833 836.909L193.953 823.037L175.53 862.523Z" fill="#04395A" fill-opacity="0.5" stroke="#04395A" stroke-width="4"/>
<path d="M223.813 206.312L201.998 206.951L212.047 220.653L223.813 206.312Z" fill="#04395A" fill-opacity="0.5" stroke="#04395A" stroke-width="4"/>
<path d="M176.037 148.711L178.449 186.414L201.553 168.208L176.037 148.711Z" fill="#04395A" fill-opacity="0.5" stroke="#04395A" stroke-width="4"/>
<path d="M226.407 33.2899L187.135 119.528L224.406 139.95L251.556 90.4014L304.001 64.4048L226.407 33.2899Z" fill="#04395A" fill-opacity="0.5" stroke="#04395A" stroke-width="4"/>
<path d="M163.985 760.876L211.337 760.876L254.208 792.669L346.836 792.669L389.699 716.251L322.12 649.476L278.268 682.327L211.337 653.77L163.985 661.602L163.985 760.876Z" fill="#04395A" fill-opacity="0.5" stroke="#04395A" stroke-width="4"/>
<path d="M150.712 871.877L123.999 985.532L45.4988 1021.53L104.777 1097.43L234.02 1097.43L326.499 1035.03L364.499 887.68L267.499 939.032L218.5 887.68L150.712 871.877Z" fill="#04395A" fill-opacity="0.5" stroke="#04395A" stroke-width="3"/>
<path d="M275.556 456.501L236.024 460.035L245.24 485.292L268.861 497.109L275.556 456.501Z" fill="#04395A" fill-opacity="0.5" stroke="#04395A" stroke-width="4"/>
<path d="M119.49 792.116L80.4973 709.353L33.1367 749.325L26.288 809.821L79.2768 788.116L119.49 792.116Z" fill="#04395A" fill-opacity="0.5" stroke="#04395A" stroke-width="4"/>
<path d="M59.6004 340.854L115.473 361.321L116.844 295.692L134.432 259.309L124.848 225.242L93.1133 259.309L46.6913 266.088L59.6004 340.854Z" fill="#04395A" fill-opacity="0.5" stroke="#04395A" stroke-width="4"/>
<path d="M405.926 903.328L459.471 819.773L519.171 851.241L592.79 831.603L579.921 908.682L503.685 946.218L500.846 1009.1L405.926 903.328Z" fill="#04395A" fill-opacity="0.5" stroke="#04395A" stroke-width="4"/>
<path d="M593.73 429.327L595.222 472.4L524.615 484.047L466.256 539.119L454.556 474.486L488.608 372.591L593.73 429.327Z" fill="#04395A" fill-opacity="0.5" stroke="#04395A" stroke-width="4"/>
<path d="M376.167 1596.24L417.583 1693.36L353.215 1733.03L322.856 1783.7L286.105 1741.18L296.798 1694.98L266.837 1651.3L376.167 1596.24Z" fill="#04395A" fill-opacity="0.5" stroke="#04395A" stroke-width="4"/>
<path d="M441.673 1155L472.16 1231.89L408.953 1217.4L441.673 1155Z" fill="#04395A" fill-opacity="0.5" stroke="#04395A" stroke-width="4"/>
<path d="M529.986 643.767L514.868 746.514L455.233 691.077L529.986 643.767Z" fill="#04395A" fill-opacity="0.5" stroke="#04395A" stroke-width="4"/>
<path d="M571.33 1381.54L507.238 1413.49L515.095 1357.9L571.33 1381.54Z" fill="#04395A" fill-opacity="0.5" stroke="#04395A" stroke-width="4"/>
<path d="M624.985 496.174L581.904 542.607L571.068 494.144L624.985 496.174Z" fill="#04395A" fill-opacity="0.5" stroke="#04395A" stroke-width="4"/>
<path d="M549.295 331.875L550.166 374.233L522.627 356.075L549.295 331.875Z" fill="#04395A" fill-opacity="0.5" stroke="#04395A" stroke-width="4"/>
<path d="M479.911 1915.71L482.872 1957.98L454.47 1941.2L479.911 1915.71Z" fill="#04395A" fill-opacity="0.5" stroke="#04395A" stroke-width="4"/>
<path d="M791.991 842.347L833.302 832.948L821.073 863.584L791.991 842.347Z" fill="#04395A" fill-opacity="0.5" stroke="#04395A" stroke-width="4"/>
<path d="M754.402 1434.88L717.078 1454.92L720.72 1422.14L754.402 1434.88Z" fill="#04395A" fill-opacity="0.5" stroke="#04395A" stroke-width="4"/>
<path d="M587.732 314.763L566 316.757L574.324 301.943L587.732 314.763Z" fill="#04395A" fill-opacity="0.5" stroke="#04395A" stroke-width="4"/>
<path d="M604.055 1768.87L560.106 1684.92L600.162 1712.42L636.68 1689.71L679.823 1733.54L604.055 1768.87Z" fill="#04395A" fill-opacity="0.5" stroke="#04395A" stroke-width="4"/>
<path d="M715.053 1805.7L755.782 1845.33L740.023 1939.34L627.296 1876.75L628.936 1806.83L692.491 1745.12L715.053 1805.7Z" fill="#04395A" fill-opacity="0.5" stroke="#04395A" stroke-width="4"/>
<path d="M731.444 718.74L764.372 672.421L839.394 705.635L815.097 794.58L745.745 803.669L675.031 750.314L731.444 718.74Z" fill="#04395A" fill-opacity="0.5" stroke="#04395A" stroke-width="4"/>
<path d="M482.164 332.977L491.561 152.869L351.25 -2.64054L453.417 -89.8927L495.694 -10.7016L645.982 91.1731L600.568 159.765L602.904 233.324L482.164 332.977Z" fill="#04395A" fill-opacity="0.5" stroke="#04395A" stroke-width="4"/>
<path d="M796.353 565.069L752.022 602.331L673.967 553.408L688.319 467.248L822.335 450.98L870.531 480.93L798.838 527.975L796.353 565.069Z" fill="#04395A" fill-opacity="0.5" stroke="#04395A" stroke-width="3"/>
<path d="M258.583 1440.29L241.957 1476.33L221.271 1459.15L218.088 1432.93L258.583 1440.29Z" fill="#04395A" fill-opacity="0.5" stroke="#04395A" stroke-width="4"/>
<path d="M209.612 1299.24L180.877 1386.1L129.044 1352.13L114.955 1292.9L170.174 1308.06L209.612 1299.24Z" fill="#04395A" fill-opacity="0.5" stroke="#04395A" stroke-width="4"/>
<path d="M764.289 1037.1L590.782 980.336L690.428 818.733L776.327 848.184L746.436 958.466L764.289 1037.1Z" fill="#04395A" fill-opacity="0.5" stroke="#04395A" stroke-width="4"/>
<path d="M733.388 1505.67L643.454 1592.68L545.97 1451.06L645.163 1383.38L655.952 1472.25L733.388 1505.67Z" fill="#04395A" fill-opacity="0.5" stroke="#04395A" stroke-width="4"/>
<path d="M1017.22 1279.76L1012.6 1180.62L1079.51 1171.79L1128.22 1113.2L1162.28 1183.54L1121.78 1258.24L1155.82 1311.19L1017.22 1279.76Z" fill="#04395A" fill-opacity="0.5" stroke="#04395A" stroke-width="4"/>
<path d="M758.802 1624.33L768.509 1582.34L839.724 1589.36L910.349 1551.27L904.922 1616.73L845.658 1706.34L758.802 1624.33Z" fill="#04395A" fill-opacity="0.5" stroke="#04395A" stroke-width="4"/>
<path d="M1120.43 549.706L1099.75 404.357L1200.48 374.236L1259.49 317.113L1293.55 387.446L1262.56 445.648L1287.09 515.099L1120.43 549.706Z" fill="#04395A" fill-opacity="0.5" stroke="#04395A" stroke-width="4"/>
<path d="M1286.86 1151.88L1277.31 1069.72L1334.61 1100.08L1286.86 1151.88Z" fill="#04395A" fill-opacity="0.5" stroke="#04395A" stroke-width="4"/>
<path d="M875.876 1433.7L917.072 1338.36L960.327 1407.35L875.876 1433.7Z" fill="#04395A" fill-opacity="0.5" stroke="#04395A" stroke-width="4"/>
<path d="M1009.62 729.024L1083.71 682.468L1080.85 751.011L1009.62 729.024Z" fill="#04395A" fill-opacity="0.5" stroke="#04395A" stroke-width="4"/>
<path d="M745.913 1551.67L799.544 1517.97L797.468 1567.59L745.913 1551.67Z" fill="#04395A" fill-opacity="0.5" stroke="#04395A" stroke-width="4"/>
<path d="M1164.59 1206.31L1190.96 1173.15L1200.56 1204.7L1164.59 1206.31Z" fill="#04395A" fill-opacity="0.5" stroke="#04395A" stroke-width="4"/>
<path d="M1364.63 263.589L1372.7 222L1395.8 245.556L1364.63 263.589Z" fill="#04395A" fill-opacity="0.5" stroke="#04395A" stroke-width="4"/>
<path d="M674.194 1174.07L631.859 1172.46L651.6 1146.03L674.194 1174.07Z" fill="#04395A" fill-opacity="0.5" stroke="#04395A" stroke-width="4"/>
<path d="M863.861 611.461L905.101 601.76L893.097 632.485L863.861 611.461Z" fill="#04395A" fill-opacity="0.5" stroke="#04395A" stroke-width="4"/>
<path d="M1152.12 1230.37L1173.62 1234.07L1161.75 1246.22L1152.12 1230.37Z" fill="#04395A" fill-opacity="0.5" stroke="#04395A" stroke-width="4"/>
<path d="M1184.94 1044.49L1164.73 1137.07L1151.68 1090.27L1109.1 1084.23L1104.17 1022.93L1184.94 1044.49Z" fill="#04395A" fill-opacity="0.5" stroke="#04395A" stroke-width="4"/>
<path d="M1109.33 186.547L1080.24 137.722L1119.79 51.0002L1212.48 140.629L1192.8 207.748L1115.44 250.905L1109.33 186.547Z" fill="#04395A" fill-opacity="0.5" stroke="#04395A" stroke-width="4"/>
<path d="M700.687 1309.14L656.893 1345.36L593.024 1293.86L639.513 1214.23L708.855 1223.4L763.35 1293.24L700.687 1309.14Z" fill="#04395A" fill-opacity="0.5" stroke="#04395A" stroke-width="4"/>
<path d="M496.487 1323.12L475.624 1419.61L537.803 1515.93L474.955 1554.12L459.054 1507.63L386.783 1439.41L417.333 1406.33L422.518 1366.38L496.487 1323.12Z" fill="#04395A" fill-opacity="0.5" stroke="#04395A" stroke-width="4"/>
<path d="M988.881 160.883L1070.62 232.125L1002.66 390.649L874.704 372.486L717.427 222.889L811.81 47.9678L919.545 167.002L988.881 160.883Z" fill="#04395A" fill-opacity="0.5" stroke="#04395A" stroke-width="3"/>
<path d="M1331.97 791.044L1328.85 733.217L1414.88 700.271L1427.85 721.535L1404.58 885.453L1354.58 900.908L1360.11 815.335L1331.97 791.044Z" fill="#04395A" fill-opacity="0.5" stroke="#04395A" stroke-width="3"/>
<path d="M1150.18 1819.93L1226.81 1784.11L1318.44 1882.65L1265.62 1998.78L1070.39 1971.07L1013.71 1910.6L1132.65 1871.32L1150.18 1819.93Z" fill="#04395A" fill-opacity="0.5" stroke="#04395A" stroke-width="3"/>
<path d="M1049.65 1572.16L1075.03 1541.65L1090.57 1563.59L1086.86 1589.74L1049.65 1572.16Z" fill="#04395A" fill-opacity="0.5" stroke="#04395A" stroke-width="4"/>
<path d="M1291.29 2006.11L1341.53 1929.65L1382.8 1975.88L1381.08 2036.74L1331.67 2007.8L1291.29 2006.11Z" fill="#04395A" fill-opacity="0.5" stroke="#04395A" stroke-width="4"/>
<path d="M865.265 900.568L907.201 751.603L997.377 805.06L1025.7 904.074L931.236 882.663L865.265 900.568Z" fill="#04395A" fill-opacity="0.5" stroke="#04395A" stroke-width="4"/>
<path d="M902.48 548.523L1011.87 487.748L1069.38 649.777L956.048 689.48L968.63 600.839L902.48 548.523Z" fill="#04395A" fill-opacity="0.5" stroke="#04395A" stroke-width="4"/>
<path d="M1391.66 1004.13L1383.3 1063.05L1324.81 1033.25L1284.44 1031.55L1258.94 1007.01L1272.39 937.205L1391.66 1004.13Z" fill="#04395A" fill-opacity="0.5" stroke="#04395A" stroke-width="4"/>
</svg>
