<svg width="1361" height="2022" viewBox="0 0 1361 2022" fill="none" xmlns="http://www.w3.org/2000/svg">
<path d="M326.878 986.778L368.149 1077.03L431.679 1054.26L501.808 1084.05L499.898 1005.93L429.694 958.052L435.72 895.393L326.878 986.778Z" fill="#04395A" fill-opacity="0.5" stroke="#04395A" stroke-width="4"/>
<path d="M446.206 1482.47L453.736 1440.03L385.467 1418.58L335.426 1355.85L314.759 1418.2L334.153 1523.87L446.206 1482.47Z" fill="#04395A" fill-opacity="0.5" stroke="#04395A" stroke-width="4"/>
<path d="M394.789 296.558L449.443 206.223L391.289 157.897L368.351 103.469L325.99 140.4L330.085 187.643L294.283 226.679L394.789 296.558Z" fill="#04395A" fill-opacity="0.5" stroke="#04395A" stroke-width="4"/>
<path d="M397.637 742.628L438.627 670.789L374.012 676.251L397.637 742.628Z" fill="#04395A" fill-opacity="0.5" stroke="#04395A" stroke-width="4"/>
<path d="M413.229 1261.2L412.7 1157.35L345.867 1203.85L413.229 1261.2Z" fill="#04395A" fill-opacity="0.5" stroke="#04395A" stroke-width="4"/>
<path d="M566.413 560.492L516.503 488.62L492.273 552.802L566.413 560.492Z" fill="#04395A" fill-opacity="0.5" stroke="#04395A" stroke-width="4"/>
<path d="M486.545 1420.68L450.416 1368.65L432.877 1415.11L486.545 1420.68Z" fill="#04395A" fill-opacity="0.5" stroke="#04395A" stroke-width="4"/>
<path d="M236.756 938.835L225.499 897.992L204.289 923.257L236.756 938.835Z" fill="#04395A" fill-opacity="0.5" stroke="#04395A" stroke-width="4"/>
<path d="M542.4 -5.16359L551.271 -46.5905L520.793 -33.9725L542.4 -5.16359Z" fill="#04395A" fill-opacity="0.5" stroke="#04395A" stroke-width="4"/>
<path d="M700.542 1101.41L740.122 1116.52L732.32 1084.47L700.542 1101.41Z" fill="#04395A" fill-opacity="0.5" stroke="#04395A" stroke-width="4"/>
<path d="M746.595 509.477L712.457 484.386L711.457 517.358L746.595 509.477Z" fill="#04395A" fill-opacity="0.5" stroke="#04395A" stroke-width="4"/>
<path d="M238.8 965.858L217.563 960.829L223.723 976.666L238.8 965.858Z" fill="#04395A" fill-opacity="0.5" stroke="#04395A" stroke-width="4"/>
<path d="M644.677 157.667L589.366 234.609L632.889 213.014L665.854 240.624L714.728 203.294L644.677 157.667Z" fill="#04395A" fill-opacity="0.5" stroke="#04395A" stroke-width="4"/>
<path d="M759.749 136.803L805.644 103.287L803.252 8.00074L682.849 54.1237L674.645 123.586L728.897 193.614L759.749 136.803Z" fill="#04395A" fill-opacity="0.5" stroke="#04395A" stroke-width="4"/>
<path d="M623.224 1215.28L649.316 1265.77L728.261 1243.42L716.705 1151.95L649.319 1133.2L571.808 1176.09L623.224 1215.28Z" fill="#04395A" fill-opacity="0.5" stroke="#04395A" stroke-width="4"/>
<path d="M210.294 1690.7L161.429 1776.47L50.8382 1806.69L72.15 1877.08L115.022 1853.07L214.369 1850.51L213.699 1805.49L236.502 1772.28L210.294 1690.7Z" fill="#04395A" fill-opacity="0.5" stroke="#04395A" stroke-width="4"/>
<path d="M665.894 1376.55L627.239 1333.43L543.083 1370.89L545.185 1458.22L675.585 1493.16L727.512 1470.28L663.141 1413.62L665.894 1376.55Z" fill="#04395A" fill-opacity="0.5" stroke="#04395A" stroke-width="3"/>
<path d="M287.334 1837.07L275.938 1799.05L253.044 1813.14L246.208 1838.66L287.334 1837.07Z" fill="#04395A" fill-opacity="0.5" stroke="#04395A" stroke-width="4"/>
<path d="M113.9 1979.79L97.657 1889.75L41.5648 1916.1L19.2917 1972.77L76.0928 1965.52L113.9 1979.79Z" fill="#04395A" fill-opacity="0.5" stroke="#04395A" stroke-width="4"/>
<path d="M700.484 904.693L520.722 936.513L596.669 1110.52L685.854 1093.43L671.758 980.04L700.484 904.693Z" fill="#04395A" fill-opacity="0.5" stroke="#04395A" stroke-width="4"/>
<path d="M735.738 436.437L658.925 337.645L542.505 464.164L631.202 545.115L654.374 458.635L735.738 436.437Z" fill="#04395A" fill-opacity="0.5" stroke="#04395A" stroke-width="4"/>
<path d="M985.001 699.992L966.501 797.492L1031.5 815.644L1071.5 880.492L1115.11 815.644L1085.5 735.992L1126.64 688.349L985.001 699.992Z" fill="#04395A" fill-opacity="0.5" stroke="#04395A" stroke-width="4"/>
<path d="M777.576 322.519L781.285 365.459L852.781 368.512L917.351 416.15L921.178 350.578L875.095 253.529L777.576 322.519Z" fill="#04395A" fill-opacity="0.5" stroke="#04395A" stroke-width="4"/>
<path d="M1073.38 1405L1032.48 1546L1127.98 1589.98L1178.38 1654.83L1221.99 1589.98L1199.48 1528L1233.52 1462.68L1073.38 1405Z" fill="#04395A" fill-opacity="0.5" stroke="#04395A" stroke-width="4"/>
<path d="M1234 864.492L1213 944.492L1274 922.492L1234 864.492Z" fill="#04395A" fill-opacity="0.5" stroke="#04395A" stroke-width="4"/>
<path d="M866.698 527.715L894.087 627.892L946.607 565.672L866.698 527.715Z" fill="#04395A" fill-opacity="0.5" stroke="#04395A" stroke-width="4"/>
<path d="M900.089 1244.19L966.901 1300.7L973.694 1232.43L900.089 1244.19Z" fill="#04395A" fill-opacity="0.5" stroke="#04395A" stroke-width="4"/>
<path d="M754.604 392.646L802.967 433.548L807.884 384.133L754.604 392.646Z" fill="#04395A" fill-opacity="0.5" stroke="#04395A" stroke-width="4"/>
<path d="M1120.59 793.419L1142.04 829.956L1155.98 800.064L1120.59 793.419Z" fill="#04395A" fill-opacity="0.5" stroke="#04395A" stroke-width="4"/>
<path d="M1069.69 1784.36L1071.84 1826.67L1098.01 1806.59L1069.69 1784.36Z" fill="#04395A" fill-opacity="0.5" stroke="#04395A" stroke-width="4"/>
<path d="M630.531 756.422L588.389 752.069L604.22 781.009L630.531 756.422Z" fill="#04395A" fill-opacity="0.5" stroke="#04395A" stroke-width="4"/>
<path d="M739.251 1340.1L778.719 1355.5L771.152 1323.4L739.251 1340.1Z" fill="#04395A" fill-opacity="0.5" stroke="#04395A" stroke-width="4"/>
<path d="M1111.62 767.845L1133.44 767.207L1123.39 753.504L1111.62 767.845Z" fill="#04395A" fill-opacity="0.5" stroke="#04395A" stroke-width="4"/>
<path d="M1118 956.492L1111 861.992L1091.5 906.492H1048.5L1035 966.492L1118 956.492Z" fill="#04395A" fill-opacity="0.5" stroke="#04395A" stroke-width="4"/>
<path d="M934.294 1759.59L898.637 1803.84L925.61 1895.26L1029.97 1819.55L1019.92 1750.33L949.391 1696.73L934.294 1759.59Z" fill="#04395A" fill-opacity="0.5" stroke="#04395A" stroke-width="4"/>
<path d="M675.742 626.419L637.472 584.406L567 626.419L601.838 711.787L671.78 712.452L735.549 650.965L675.742 626.419Z" fill="#04395A" fill-opacity="0.5" stroke="#04395A" stroke-width="4"/>
<path d="M1170.5 536.492L1195.5 440.992L1294.5 383.177L1255.7 320.707L1220.5 354.992L1125.2 383.177L1137.5 426.492L1124.07 464.471L1170.5 536.492Z" fill="#04395A" fill-opacity="0.5" stroke="#04395A" stroke-width="4"/>
<path d="M1157.57 152.541L1248.5 93.492L1203.5 -73.008L1074.26 -73.0079L897.519 53.0025L966.384 239.451L1089.78 136.739L1157.57 152.541Z" fill="#04395A" fill-opacity="0.5" stroke="#04395A" stroke-width="3"/>
<path d="M1227.95 1228.09L1216.74 1284.9L1297.28 1329.61L1313.11 1310.38L1313.11 1144.82L1265.78 1122.49L1259.23 1207.99L1227.95 1228.09Z" fill="#04395A" fill-opacity="0.5" stroke="#04395A" stroke-width="3"/>
<path d="M454.632 153.886L525.472 200.113L630.043 115.436L594.066 -6.97224L396.876 -6.97223L332.262 44.9404L444.501 100.536L454.632 153.886Z" fill="#04395A" fill-opacity="0.5" stroke="#04395A" stroke-width="3"/>
<path d="M1058.2 415.05L1079.05 448.824L1097.52 429.282L1097.52 402.869L1058.2 415.05Z" fill="#04395A" fill-opacity="0.5" stroke="#04395A" stroke-width="4"/>
<path d="M1188.79 232.304L1227.78 315.067L1275.14 275.095L1281.99 214.598L1229 236.304L1188.79 232.304Z" fill="#04395A" fill-opacity="0.5" stroke="#04395A" stroke-width="4"/>
<path d="M999.451 1149.87L1149.91 1186.07L1147.33 1081.27L1074.78 1008.18L1047.31 1101.06L999.451 1149.87Z" fill="#04395A" fill-opacity="0.5" stroke="#04395A" stroke-width="4"/>
<path d="M768.642 1407.84L868.407 1483.39L948.114 1331.05L841.488 1275.81L841.488 1365.34L768.642 1407.84Z" fill="#04395A" fill-opacity="0.5" stroke="#04395A" stroke-width="4"/>
<path d="M1317 1025.5L1317 965.998L1254.9 987.283L1214.69 983.283L1186 1004L1189.5 1075L1317 1025.5Z" fill="#04395A" fill-opacity="0.5" stroke="#04395A" stroke-width="4"/>
</svg>
