<svg width="358" height="1024" viewBox="0 0 358 1024" fill="none" xmlns="http://www.w3.org/2000/svg">
<path d="M-3.99969 699.991L-22.4998 797.491L42.5001 815.643L82.5002 880.491L126.106 815.643L96.5002 735.991L137.642 688.348L-3.99969 699.991Z" fill="#04395A" fill-opacity="0.5" stroke="#04395A" stroke-width="4"/>
<path d="M245 864.491L224 944.491L285 922.491L245 864.491Z" fill="#04395A" fill-opacity="0.5" stroke="#04395A" stroke-width="4"/>
<path d="M131.591 793.418L153.036 829.956L166.983 800.063L131.591 793.418Z" fill="#04395A" fill-opacity="0.5" stroke="#04395A" stroke-width="4"/>
<path d="M122.623 767.845L144.437 767.206L134.388 753.503L122.623 767.845Z" fill="#04395A" fill-opacity="0.5" stroke="#04395A" stroke-width="4"/>
<path d="M129 956.491L122 861.991L102.5 906.491H59.5L46 966.491L129 956.491Z" fill="#04395A" fill-opacity="0.5" stroke="#04395A" stroke-width="4"/>
<path d="M181.5 536.491L206.5 440.991L305.5 383.176L266.698 320.706L231.5 354.991L136.201 383.176L148.5 426.492L135.07 464.47L181.5 536.491Z" fill="#04395A" fill-opacity="0.5" stroke="#04395A" stroke-width="4"/>
<path d="M168.565 152.54L259.5 93.4913L214.5 -73.0087L85.2575 -73.0087L-91.4814 53.0017L-22.6172 239.45L100.777 136.738L168.565 152.54Z" fill="#04395A" fill-opacity="0.5" stroke="#04395A" stroke-width="3"/>
<path d="M69.2017 415.049L90.0493 448.823L108.514 429.281L108.514 402.869L69.2017 415.049Z" fill="#04395A" fill-opacity="0.5" stroke="#04395A" stroke-width="4"/>
<path d="M199.787 232.303L238.78 315.066L286.14 275.094L292.989 214.598L240 236.303L199.787 232.303Z" fill="#04395A" fill-opacity="0.5" stroke="#04395A" stroke-width="4"/>
<path d="M328 1025.5L328 965.997L265.905 987.282L225.692 983.282L197 1004L200.5 1075L328 1025.5Z" fill="#04395A" fill-opacity="0.5" stroke="#04395A" stroke-width="4"/>
</svg>
