<svg width="277" height="99" viewBox="0 0 277 99" fill="none" xmlns="http://www.w3.org/2000/svg">
<path d="M239.125 54.752H276.469V62.144H246.613V69.632H261.493V77.12H246.613V84.608H276.469V92H239.125V54.752Z" fill="#C4D6EA"/>
<path d="M254.063 0.751953L216.719 0.751954V38L241 38V35H245V35.5H246.5V34H245V32H247V30.608L224.111 30.608V8.14395L254.063 8.14395V0.751953Z" fill="#C4D6EA"/>
<path d="M201.719 0.751954V38H209.207V0.751954H201.719Z" fill="#C4D6EA"/>
<path d="M194.25 0.751954L156.906 0.751954V8.14395L171.786 8.14395V38H179.274V8.14395L194.25 8.14395V0.751954Z" fill="#C4D6EA"/>
<path d="M149.438 0.751954L112.094 0.751954L112.094 38H149.438V30.608L119.486 30.608V8.14395L149.438 8.14395V0.751954Z" fill="#C4D6EA"/>
<path fill-rule="evenodd" clip-rule="evenodd" d="M97.1373 38H104.625V30.608L97.1373 30.608V23.12L104.625 23.12L104.625 0.751954H67.2813L67.2812 38H74.7693V23.12L89.7453 23.12V30.608H97.1373V38ZM97.1373 15.632V8.14395H74.7693V15.632H97.1373Z" fill="#C4D6EA"/>
<path fill-rule="evenodd" clip-rule="evenodd" d="M59.8127 0.751954L22.4688 0.751954L22.4688 38H29.9568L29.9568 23.12L52.4208 23.12V38L59.8128 38L59.8127 0.751954ZM52.4208 8.14395V15.632H29.9568V8.14395L52.4208 8.14395Z" fill="#C4D6EA"/>
<path d="M29.9185 84.608V92L0.0625 92L0.0625016 54.752H29.9185V62.144H7.55051L7.55051 84.608L29.9185 84.608Z" fill="#C4D6EA"/>
<path d="M29.9185 84.608L29.9185 62.144L37.4065 62.144V84.608H29.9185Z" fill="#C4D6EA"/>
<path d="M82.219 54.752L44.875 54.752V83.5H49V87.5H52V89.5H54.5V92H82.219V84.608H52.363V77.12H67.243V69.632H52.363V62.144L82.219 62.144V54.752Z" fill="#C4D6EA"/>
<path d="M127.032 54.752L89.6875 54.752V92H127.032V84.608H97.0795V62.144L127.032 62.144V54.752Z" fill="#C4D6EA"/>
<path d="M141.988 84.608V54.752H134.5V92L171.844 92L171.844 84.608L141.988 84.608Z" fill="#C4D6EA"/>
<path d="M179.312 54.752L179.313 92H186.801L186.801 54.752H179.312Z" fill="#C4D6EA"/>
<path d="M231.656 54.752L194.312 54.752L194.313 92H201.801L201.801 62.144L224.168 62.144V92H231.656V54.752Z" fill="#C4D6EA"/>
<path d="M253.5 41V39.5H256.5V41H255V44H252V41H253.5Z" fill="#C4D6EA"/>
<path d="M253 33V34.5H251.5V36H253V37.5H254.5V36H256V34.5H254.5V33H253Z" fill="#C4D6EA"/>
<path d="M252.5 26.5H251V28H252.5V26.5Z" fill="#C4D6EA"/>
<path d="M249.5 28H248V29.5H249.5V28Z" fill="#C4D6EA"/>
<path d="M246.5 40.5V39H249.5V43.5H245V40.5H246.5Z" fill="#C4D6EA"/>
<path d="M247.5 36.5H249V38H247.5V36.5Z" fill="#C4D6EA"/>
<path d="M249 33.5H250.5V35H249V33.5Z" fill="#C4D6EA"/>
<path d="M243.5 37.5H245V39H243.5V37.5Z" fill="#C4D6EA"/>
<path d="M249.5 30.5V32H252.5V30.5H249.5Z" fill="#C4D6EA"/>
<path d="M55.5 92.5V94H54V92.5H55.5Z" fill="#C4D6EA"/>
<path d="M49.25 91.75H52.25V93.25H49.25V91.75Z" fill="#C4D6EA"/>
<path d="M49 88.5V90H47.5V88.5H49Z" fill="#C4D6EA"/>
<path d="M47.5 90V91.5H46V90H47.5Z" fill="#C4D6EA"/>
<path d="M43.5 88.5H45V90H43.5V91.5H42V90H40.5V88.5H42V87H43.5V88.5Z" fill="#C4D6EA"/>
<path d="M43.5 82.5V84H42V82.5H43.5Z" fill="#C4D6EA"/>
<path d="M46.5 86V87.5H45V86H46.5Z" fill="#C4D6EA"/>
<path d="M45.5 94.5V96H44V99H47V96H48.5V94.5H45.5Z" fill="#C4D6EA"/>
</svg>
